# Low-poly self-similar mountain
o rock
v -4 0 2
v -1 0 2
v -1 0 5
v -4 0 5
v -2.5 3.8 3.5
v -2.5 0 1
v 0 0 1
v 0 0 4
v -2.5 0 4
v -1.2 2.8 2.5
v 0 0 2
v 4 0 2
v 4 0 5
v 0 0 5
v 2.0 3.1 3.5
v -4 0 -1
v 0 0 -1
v 4 0 -1
v 0 0 0
g rock
f 1 2 5
f 2 3 5
f 3 4 5
f 4 1 5
f 6 7 10
f 7 8 10
f 8 9 10
f 9 6 10
f 11 12 15
f 12 13 15
f 13 14 15
f 14 11 15
f 16 17 19
f 17 18 19
f 18 16 19
g snow
v -2.5 3.8 3.5
v -3.2 3.05 3.5
v -1.8 3.05 3.5
v -2.5 3.05 2.8
v -1.2 2.8 2.5
v -1.65 2.22 2.5
v -0.75 2.22 2.5
v -1.2 2.22 2.1
v 2.0 3.1 3.5
v 1.45 2.6 3.5
v 2.55 2.6 3.5
v 2.0 2.6 3.0
f 20 21 22
f 20 22 23
f 21 24 23
f 22 24 23
f 24 25 26
f 24 26 27
f 25 28 27
f 26 28 27
f 28 29 30
f 28 30 31
f 29 32 31
f 30 32 31
